<?xml version="1.0" encoding="utf-8"?>
<!-- Generator: Adobe Illustrator 16.0.0, SVG Export Plug-In . SVG Version: 6.00 Build 0)  -->
<!DOCTYPE svg PUBLIC "-//W3C//DTD SVG 1.1//EN" "http://www.w3.org/Graphics/SVG/1.1/DTD/svg11.dtd">
<svg version="1.1" id="Layer_1" xmlns="http://www.w3.org/2000/svg" xmlns:xlink="http://www.w3.org/1999/xlink" x="0px" y="0px"
	 width="73px" height="13px" viewBox="0 0 73 13" enable-background="new 0 0 73 13" xml:space="preserve">
<path fill="#222222" d="M27.609,5.621L27.609,5.621l-3.18,2.482l1.293,4.035c0,0.104,0,0.104,0,0.206
	c0,0.312-0.299,0.619-0.598,0.619c-0.1,0-0.299,0-0.396-0.103l0,0l-3.277-2.483l-3.279,2.483l0,0
	c-0.1,0.103-0.197,0.103-0.396,0.103c-0.298,0-0.596-0.31-0.596-0.619c0-0.104,0-0.104,0-0.206l1.29-4.035l-3.179-2.482l0,0
	c-0.197-0.104-0.297-0.31-0.297-0.517c0-0.31,0.297-0.621,0.596-0.621l0,0h4.072l1.291-4.034c0-0.207,0.199-0.414,0.498-0.414
	c0.297,0,0.495,0.207,0.596,0.414l1.291,4.034h4.072l0,0c0.299,0,0.596,0.312,0.596,0.621C27.908,5.312,27.809,5.518,27.609,5.621z"
	/>
<path fill="#222222" d="M57.615,5.621L57.615,5.621l-3.18,2.482l1.293,4.035c0,0.104,0,0.104,0,0.206
	c0,0.312-0.299,0.619-0.599,0.619c-0.101,0-0.299,0-0.396-0.103l0,0l-3.277-2.483l-3.279,2.483l0,0
	c-0.1,0.103-0.197,0.103-0.396,0.103c-0.298,0-0.597-0.31-0.597-0.619c0-0.104,0-0.104,0-0.206l1.291-4.035l-3.18-2.482l0,0
	C45.1,5.518,45,5.312,45,5.104c0-0.31,0.297-0.621,0.596-0.621l0,0h4.072l1.291-4.034c0-0.207,0.199-0.414,0.498-0.414
	c0.297,0,0.496,0.207,0.596,0.414l1.291,4.034h4.072l0,0c0.299,0,0.596,0.312,0.596,0.621C57.914,5.312,57.814,5.518,57.615,5.621z"
	/>
<path fill="#222222" d="M42.609,5.621L42.609,5.621l-3.18,2.482l1.293,4.035c0,0.104,0,0.104,0,0.206c0,0.312-0.3,0.619-0.599,0.619
	c-0.101,0-0.299,0-0.396-0.103l0,0l-3.277-2.483l-3.279,2.483l0,0c-0.1,0.103-0.197,0.103-0.396,0.103
	c-0.297,0-0.596-0.31-0.596-0.619c0-0.104,0-0.104,0-0.206l1.291-4.035l-3.18-2.482l0,0c-0.197-0.104-0.297-0.31-0.297-0.517
	c0-0.31,0.297-0.621,0.596-0.621l0,0h4.072l1.291-4.034c0-0.207,0.199-0.414,0.498-0.414c0.297,0,0.496,0.207,0.596,0.414
	l1.291,4.034h4.072l0,0c0.299,0,0.596,0.312,0.596,0.621C42.908,5.312,42.809,5.518,42.609,5.621z"/>
<path fill="#222222" d="M72.609,5.621L72.609,5.621l-3.18,2.482l1.293,4.035c0,0.104,0,0.104,0,0.206c0,0.312-0.3,0.619-0.599,0.619
	c-0.101,0-0.299,0-0.396-0.103l0,0l-3.277-2.483l-3.279,2.483l0,0c-0.1,0.103-0.197,0.103-0.396,0.103
	c-0.297,0-0.596-0.31-0.596-0.619c0-0.104,0-0.104,0-0.206l1.291-4.035l-3.18-2.482l0,0c-0.197-0.104-0.297-0.31-0.297-0.517
	c0-0.31,0.297-0.621,0.596-0.621l0,0h4.072l1.291-4.034c0-0.207,0.199-0.414,0.498-0.414c0.297,0,0.496,0.207,0.596,0.414
	l1.291,4.034h4.072l0,0c0.299,0,0.596,0.312,0.596,0.621C72.908,5.312,72.809,5.518,72.609,5.621z"/>
<path fill="#222222" d="M12.609,5.621L12.609,5.621L9.43,8.104l1.293,4.035c0,0.104,0,0.104,0,0.206
	c0,0.312-0.299,0.619-0.598,0.619c-0.1,0-0.299,0-0.396-0.103l0,0l-3.278-2.483l-3.278,2.483l0,0
	c-0.1,0.103-0.198,0.103-0.397,0.103c-0.298,0-0.596-0.31-0.596-0.619c0-0.104,0-0.104,0-0.206l1.29-4.035L0.292,5.621l0,0
	c-0.198-0.104-0.298-0.31-0.298-0.517c0-0.31,0.298-0.621,0.596-0.621l0,0h4.073l1.291-4.034c0-0.207,0.199-0.414,0.497-0.414
	c0.298,0,0.496,0.207,0.596,0.414l1.291,4.034h4.072l0,0c0.299,0,0.596,0.312,0.596,0.621C12.908,5.312,12.809,5.518,12.609,5.621z"
	/>
</svg>
